# xmcd
#
# Track frame offsets:
#	150
#	14040
#	30662
#	46977
#	63407
#	77400
#	91555
#	109547
#	124675
#	152462
#	165527
#	179852
#	191810
#	203370
#	215957
#	232142
#
# Disc length: 3262 seconds
#
# Revision: 2
# Processed by: cddbd v1.4b42PL1 Copyright (c) Steve Scherf et al.
# Submitted via: audiograbber 1.80
#
DISCID=d30cbc10
DTITLE=Various Artist - The Best Of Country Vol 2 (90s)
DYEAR=1900
DGENRE=
TTITLE0=Pirates Of The Mississippi - Honky Tonk Blues
TTITLE1=Garth Brooks - The Dance
TTITLE2=Lacy J. Dalton - Black Coffee
TTITLE3=Eddie Rabbit - On Second Thought
TTITLE4=The Gatlin Bros - Boogie And Beethoven
TTITLE5=Sawyer Brown - Puttin` The Dark Back Into The Night
TTITLE6=Eddie Raven - Island
TTITLE7=Tanya Tucker With T.Graham Brown - Don`t Go Out
TTITLE8=John Andrew Parks - The Ghost Of Johnny Ringo
TTITLE9=Glen Campbell - She`s Gone Gone Gone
TTITLE10=T.Graham Brown - If You Could Only See Me Now
TTITLE11=Tanya Tucker - Walking Shoes
TTITLE12=Garth Brooks - Not Counting You
TTITLE13=Lee Greenwood - Holdin` A Good Hand
TTITLE14=Dan Seals - Good Times
TTITLE15=Crystal Gayle - Everybody`s Reaching Out For Someone
EXTD=
EXTT0=
EXTT1=
EXTT2=
EXTT3=
EXTT4=
EXTT5=
EXTT6=
EXTT7=
EXTT8=
EXTT9=
EXTT10=
EXTT11=
EXTT12=
EXTT13=
EXTT14=
EXTT15=
PLAYORDER=
